#!OML:ASF E:\Steps\Project 1\Capture day 1\Session 2\Subject.ASF
:FULLY-SPECIFIED
:DEGREES
63
root -1.32446 19.631 20.5047 -153.534 -3.29555 178.243
lowerback -29.9095 -3.3822 -9.01517
upperback -1.67783 -2.1128 -0.425232
thorax 14.0468 -1.81269 3.49597
lowerneck -4.88745 -3.545 0.549592
upperneck 10.2531 -5.40113 2.73559
head 4.31582 -2.62798 0.525604
rclavicle 2.16675e-014 4.45278e-014
rhumerus -34.9099 -18.8947 -78.7989
rradius 27.0317
rwrist -0.982532
rhand -1.79863 -56.3514
rfingers 7.12502
rthumb 23.8665 -84.8885
lclavicle 2.16675e-014 4.45278e-014
lhumerus -29.394 0.834852 82.6134
lradius 20.1422
lwrist 0.303944
lhand -19.6055 -10.433
lfingers 7.12502
lthumb 6.72062 19.4404
rfemur -24.0873 6.37928 18.6974
rtibia 7.61331
rfoot -17.9778 -3.2904
rtoes -22.2059
lfemur -23.2825 -6.5858 -23.4035
ltibia 8.05759
lfoot -8.66358 -0.8376
ltoes -28.7087
64
root -1.3243 19.632 20.5079 -153.598 -3.32247 178.201
lowerback -29.9171 -3.36446 -9.03176
upperback -1.61033 -2.06362 -0.469576
thorax 14.121 -1.79087 3.47556
lowerneck -4.91315 -3.52777 0.562498
upperneck 10.4806 -5.3957 2.68811
head 4.40125 -2.62832 0.504891
rclavicle -9.83984e-015 -1.51076e-014
rhumerus -34.7674 -18.791 -78.9207
rradius 27.1216
rwrist -1.17567
rhand -1.77113 -56.5044
rfingers 7.12502
rthumb 23.8929 -85.0381
lclavicle -9.83984e-015 -1.51076e-014
lhumerus -29.1857 1.01958 82.5241
lradius 20.1783
lwrist -0.364075
lhand -19.7011 -10.6239
lfingers 7.12502
lthumb 6.6284 19.2523
rfemur -24.0331 6.20416 18.6936
rtibia 7.62995
rfoot -17.9307 -3.21276
rtoes -22.4403
lfemur -23.2967 -6.75915 -23.4283
ltibia 8.2247
lfoot -8.76631 -0.720288
ltoes -28.3428
65
root -1.32394 19.6315 20.5091 -153.675 -3.32904 178.221
lowerback -29.9387 -3.34785 -8.99152
upperback -1.56077 -2.03951 -0.499175
thorax 14.1838 -1.77742 3.43049
lowerneck -5.00117 -3.67593 0.690417
upperneck 11.0888 -5.67216 2.65681
head 4.63964 -2.76717 0.447695
rclavicle -4.17448e-015 3.73715e-014
rhumerus -34.6592 -18.7379 -79.0278
rradius 27.1887
rwrist -1.12874
rhand -1.74113 -56.69
rfingers 7.12502
rthumb 23.9217 -85.2199
lclavicle -4.17448e-015 3.73715e-014
lhumerus -28.9939 1.04327 82.5435
lradius 20.148
lwrist -0.367488
lhand -20.5071 -10.6585
lfingers 7.12502
lthumb 5.85022 19.2407
rfemur -23.9891 6.20991 18.7273
rtibia 7.71437
rfoot -17.9736 -3.21409
rtoes -23.3228
lfemur -23.3018 -6.99558 -23.3633
ltibia 8.40001
lfoot -8.89037 -0.487536
ltoes -27.5323
66
root -1.32749 19.6304 20.5172 -153.624 -3.26776 178.227
lowerback -29.9859 -3.33509 -8.93714
upperback -1.5765 -2.04077 -0.508371
thorax 14.1853 -1.77594 3.38909
lowerneck -5.10205 -3.6704 0.693759
upperneck 11.3597 -5.6807 2.56682
head 4.75649 -2.77575 0.410811
rclavicle 2.04748e-014 -2.38542e-015
rhumerus -34.5282 -18.6362 -79.0917
rradius 27.1979
rwrist -0.994154
rhand -1.73182 -56.9175
rfingers 7.12502
rthumb 23.9306 -85.4463
lclavicle 2.04748e-014 -2.38542e-015
lhumerus -28.8866 0.929184 82.6967
lradius 20.2561
lwrist 0.121288
lhand -20.6833 -10.3013
lfingers 7.12502
lthumb 5.68009 19.6026
rfemur -24.1834 6.19315 18.6902
rtibia 7.90132
rfoot -18.0725 -3.07515
rtoes -22.9534
lfemur -23.5224 -7.16566 -23.3452
ltibia 8.64807
lfoot -8.98094 -0.246777
ltoes -27.5892
67
root -1.33438 19.6295 20.5292 -153.504 -3.14714 178.258
lowerback -30.0671 -3.2699 -8.82193
upperback -1.60672 -1.99378 -0.524026
thorax 14.1781 -1.74974 3.32659
lowerneck -5.03188 -3.48081 0.365137
upperneck 11.0414 -5.38012 2.76237
head 4.63942 -2.62851 0.557197
rclavicle 1.39149e-014 -7.95139e-015
rhumerus -34.3825 -18.5391 -79.1509
rradius 27.2247
rwrist -1.02321
rhand -1.84706 -57.212
rfingers 7.12502
rthumb 23.8201 -85.7553
lclavicle 1.39149e-014 -7.95139e-015
lhumerus -28.8423 0.850011 82.7894
lradius 20.4795
lwrist 0.281605
lhand -20.3597 -10.0877
lfingers 7.12502
lthumb 5.99259 19.8075
rfemur -24.4906 6.11096 18.6609
rtibia 8.09029
rfoot -18.1214 -2.80582
rtoes -21.665
lfemur -23.8359 -7.28523 -23.3207
ltibia 8.86923
lfoot -9.08493 -0.0365445
ltoes -27.7386
68
root -1.33752 19.6302 20.5371 -153.474 -3.08064 178.354
lowerback -30.0976 -3.19628 -8.6892
upperback -1.61387 -1.94126 -0.516742
thorax 14.1761 -1.71829 3.2843
lowerneck -5.10542 -3.7747 0.537436
upperneck 11.6824 -5.8591 2.66955
head 4.88894 -2.86981 0.458392
rclavicle 7.15625e-015 -8.74653e-015
rhumerus -34.2103 -18.4567 -79.2167
rradius 27.2236
rwrist -1.10632
rhand -1.91708 -57.6352
rfingers 7.12502
rthumb 23.7529 -86.1872
lclavicle 7.15625e-015 -8.74653e-015
lhumerus -28.8403 0.771505 82.8135
lradius 20.7195
lwrist 0.0982962
lhand -20.1635 -10.2168
lfingers 7.12502
lthumb 6.18196 19.673
rfemur -24.6446 6.07369 18.7532
rtibia 8.20198
rfoot -18.1139 -2.71098
rtoes -21.8918
lfemur -24.0169 -7.46086 -23.165
ltibia 9.04136
lfoot -9.21792 0.141876
ltoes -26.6903
69
root -1.33734 19.6312 20.5439 -153.524 -3.09621 178.406
lowerback -30.006 -3.17479 -8.64064
upperback -1.62338 -1.93876 -0.494559
thorax 14.1247 -1.71149 3.28761
lowerneck -4.95002 -3.78308 0.509106
upperneck 12.4637 -5.93787 2.72764
head 4.61929 -2.90718 0.417079
rclavicle -6.95746e-015 -4.05521e-014
rhumerus -34.1022 -18.4293 -79.223
rradius 27.2271
rwrist -1.12327
rhand -1.86471 -57.4656
rfingers 7.12502
rthumb 23.8032 -86.011
lclavicle -6.95746e-015 -4.05521e-014
lhumerus -28.8047 0.651502 82.9203
lradius 20.8502
lwrist -0.0472997
lhand -20.3391 -10.661
lfingers 7.12502
lthumb 6.01248 19.2336
rfemur -24.6311 6.19595 18.8024
rtibia 8.20993
rfoot -18.0983 -2.88983
rtoes -22.8725
lfemur -24.1087 -7.65357 -23.0513
ltibia 9.28061
lfoot -9.34947 0.256893
ltoes -25.6252
70
root -1.33778 19.6321 20.5508 -153.606 -3.13407 178.408
lowerback -29.8542 -3.18195 -8.6232
upperback -1.63954 -1.96665 -0.498484
thorax 14.0414 -1.71864 3.26893
lowerneck -4.84177 -3.75545 0.530416
upperneck 13.2422 -6.00477 2.71435
head 4.84038 -2.95605 0.395989
rclavicle 6.75868e-015 -1.35174e-014
rhumerus -34.0785 -18.4736 -79.2221
rradius 27.2597
rwrist -1.1401
rhand -1.97091 -56.8474
rfingers 7.12502
rthumb 23.7013 -85.406
lclavicle 6.75868e-015 -1.35174e-014
lhumerus -28.818 0.374599 83.1078
lradius 21.0298
lwrist 0.0300255
lhand -20.654 -10.904
lfingers 7.12502
lthumb 5.70842 18.9991
rfemur -24.5603 6.2153 18.821
rtibia 8.21543
rfoot -18.1057 -2.93741
rtoes -22.9001
lfemur -24.1429 -7.87342 -23.0101
ltibia 9.4991
lfoot -9.35857 0.384973
ltoes -25.0904
71
root -1.33877 19.6343 20.5575 -153.696 -3.16676 178.419
lowerback -29.7226 -3.18498 -8.57846
upperback -1.64277 -1.99217 -0.522327
thorax 13.9804 -1.72333 3.21412
lowerneck -4.71126 -3.48586 0.223891
upperneck 13.2691 -5.67173 3.08766
head 4.84152 -2.79157 0.58106
rclavicle 1.17283e-014 1.98785e-014
rhumerus -34.0186 -18.3256 -79.3403
rradius 27.2784
rwrist -1.323
rhand -2.26 -56.4099
rfingers 7.12502
rthumb 23.424 -85.0042
lclavicle 1.17283e-014 1.98785e-014
lhumerus -28.8846 -0.0250364 83.2627
lradius 21.3322
lwrist 0.391332
lhand -20.6934 -10.6432
lfingers 7.12502
lthumb 5.67035 19.2609
rfemur -24.5006 6.18786 18.8359
rtibia 8.27019
rfoot -18.1485 -2.8689
rtoes -22.2583
lfemur -24.1753 -8.05583 -22.9676
ltibia 9.66362
lfoot -9.3231 0.55848
ltoes -25.3997
72
root -1.33772 19.6353 20.5644 -153.778 -3.18407 178.394
lowerback -29.6319 -3.21081 -8.62588
upperback -1.61885 -2.01153 -0.516735
thorax 13.9711 -1.73247 3.24128
lowerneck -4.58346 -3.42748 -0.303428
upperneck 13.0302 -5.61141 3.72505
head 4.77745 -2.7533 0.870628
rclavicle -3.27995e-015 -1.11319e-014
rhumerus -33.9149 -18.0327 -79.4576
rradius 27.3393
rwrist -1.51879
rhand -2.36833 -56.058
rfingers 7.12502
rthumb 23.3201 -84.6655
lclavicle -3.27995e-015 -1.11319e-014
lhumerus -28.8742 -0.179816 83.3645
lradius 21.5552
lwrist 0.625599
lhand -20.6753 -10.5927
lfingers 7.12502
lthumb 5.68789 19.3109
rfemur -24.4265 6.29475 18.7662
rtibia 8.27396
rfoot -18.1316 -2.90052
rtoes -21.3487
lfemur -24.2366 -8.1562 -22.9943
ltibia 9.8502
lfoot -9.3774 0.685161
ltoes -26.8334
73
root -1.33496 19.6347 20.5707 -153.805 -3.17813 178.376
lowerback -29.5949 -3.26315 -8.71539
upperback -1.6096 -2.05614 -0.46918
thorax 13.9742 -1.75792 3.32448
lowerneck -4.5228 -3.46749 -0.578724
upperneck 13.0986 -5.68088 3.92362
head 4.80263 -2.79249 0.972391
rclavicle -1.98785e-015 -1.82882e-014
rhumerus -33.8136 -17.8194 -79.4977
rradius 27.4303
rwrist -1.50243
rhand -2.12999 -56.1161
rfingers 7.12502
rthumb 23.5487 -84.6945
lclavicle -1.98785e-015 -1.82882e-014
lhumerus -28.8559 -0.0765968 83.4208
lradius 21.7224
lwrist 0.647508
lhand -20.8183 -10.5821
lfingers 7.12502
lthumb 5.54975 19.3252
rfemur -24.424 6.48778 18.7104
rtibia 8.26527
rfoot -18.0552 -3.15049
rtoes -21.5322
lfemur -24.3556 -8.22788 -23.0025
ltibia 10.0835
lfoot -9.45596 0.776875
ltoes -27.6313
